<svg width="73" height="48" viewBox="0 0 73 48" fill="none" xmlns="http://www.w3.org/2000/svg">
<g filter="url(#filter0_d_13229_2)">
<rect x="4" width="65" height="40" fill="#4EACD5"/>
</g>
<path d="M38.2434 20.5352C37.6828 19.9086 36.9035 19.5566 35.9035 19.4805C36.7929 19.238 37.4389 18.8835 37.8475 18.4096C38.2541 17.942 38.4559 17.3073 38.4559 16.5084C38.4559 15.8761 38.3176 15.3166 38.0498 14.8334C37.7752 14.3531 37.3805 13.9685 36.862 13.6807C36.4081 13.4312 35.8689 13.2552 35.2404 13.1514C34.6087 13.0508 33.5031 13 31.9168 13H28.0596V27.0674H32.0337C33.6301 27.0674 34.7815 27.0115 35.4855 26.9046C36.1888 26.794 36.779 26.6079 37.2567 26.3528C37.8475 26.041 38.2981 25.5973 38.613 25.0273C38.9298 24.4553 39.0869 23.7959 39.0869 23.0417C39.0869 21.9985 38.8059 21.16 38.2434 20.5352ZM31.6214 16.1187H32.4447C33.3963 16.1187 34.0356 16.2261 34.3655 16.4398C34.6911 16.6549 34.857 17.0257 34.857 17.5542C34.857 18.0627 34.6804 18.4209 34.3309 18.6309C33.977 18.837 33.3316 18.9413 32.3869 18.9413H31.6214V16.1187ZM34.8872 24.1856C34.5126 24.4157 33.8671 24.5287 32.9613 24.5287H31.6214V21.4553H33.0192C33.9494 21.4553 34.5923 21.5723 34.9343 21.806C35.2819 22.0399 35.4528 22.4528 35.4528 23.0455C35.4528 23.576 35.2654 23.957 34.8872 24.1856Z" fill="white"/>
<path d="M43.1589 23.5034C42.1743 23.5034 41.3767 24.3005 41.3767 25.285C41.3767 26.2696 42.1743 27.0671 43.1589 27.0671C44.1422 27.0671 44.9405 26.2696 44.9405 25.285C44.9405 24.3005 44.1422 23.5034 43.1589 23.5034Z" fill="white"/>
<rect x="41.6112" y="13" width="3.09483" height="9.37828" fill="white"/>
<defs>
<filter id="filter0_d_13229_2" x="0" y="0" width="73" height="48" filterUnits="userSpaceOnUse" color-interpolation-filters="sRGB">
<feFlood flood-opacity="0" result="BackgroundImageFix"/>
<feColorMatrix in="SourceAlpha" type="matrix" values="0 0 0 0 0 0 0 0 0 0 0 0 0 0 0 0 0 0 127 0" result="hardAlpha"/>
<feOffset dy="4"/>
<feGaussianBlur stdDeviation="2"/>
<feComposite in2="hardAlpha" operator="out"/>
<feColorMatrix type="matrix" values="0 0 0 0 0 0 0 0 0 0 0 0 0 0 0 0 0 0 0.25 0"/>
<feBlend mode="normal" in2="BackgroundImageFix" result="effect1_dropShadow_13229_2"/>
<feBlend mode="normal" in="SourceGraphic" in2="effect1_dropShadow_13229_2" result="shape"/>
</filter>
</defs>
</svg>
